<?xml version="1.0" encoding="UTF-8"?>
<svg id="Layer_1" data-name="Layer 1" xmlns="http://www.w3.org/2000/svg" viewBox="0 0 88.23 26.38">
  <path fill="#FFFFFF" d="m16.45,18.5l-.12.67c-.28.02-.53.04-.74.04-.3,0-.67-.02-1.1-.07-.73-.08-1.2-.12-1.39-.12-.33,0-.83.05-1.51.15.24-.61.45-1.25.61-1.92.12-.48.24-1.3.38-2.46-.91,0-2.33.01-4.25.06-1.99,3.03-3.45,4.94-4.37,5.71s-1.81,1.17-2.64,1.17c-.44,0-.76-.08-.98-.25S0,21.09,0,20.82c0-.2.06-.37.19-.5s.28-.2.47-.2c.11,0,.26.02.45.06.47.11.78.16.94.16.52,0,1.1-.3,1.73-.89,1.03-.97,2.55-3,4.57-6.09,2.28-3.5,4.13-6.05,5.54-7.64-1.93.17-3.13.34-3.6.49-.66.21-1.15.52-1.48.94-.33.41-.49.84-.49,1.27,0,.14.05.34.15.6.11.29.16.5.16.63,0,.17-.07.32-.2.46s-.29.2-.48.2c-.27,0-.48-.1-.64-.3s-.24-.5-.24-.9c0-.56.15-1.11.44-1.63s.71-.97,1.26-1.32,1.23-.63,2.05-.81c.42-.1,1.16-.19,2.23-.27.92-.08,1.5-.15,1.74-.22.37-.1.72-.3,1.06-.6-.23.96-.4,1.8-.5,2.52l-.92,6.77-.53,4.85c.58.15,1.1.22,1.56.22.3,0,.64-.04,1-.11Zm-3.77-4.58c.38-3.17.75-5.49,1.12-6.95-.99,1.31-1.6,2.14-1.84,2.49l-3.01,4.46c.65.02,1.57.04,2.77.04.3,0,.61-.01.95-.04Z"/>
  <path fill="#FFFFFF" d="m23.7,7.81l.14-.53c1.13-.11,2.1-.27,2.91-.47-.19.55-.4,1.27-.63,2.15l-.89,3.3,1.08.06c.5.02,1.05-.1,1.64-.38s1.12-.75,1.58-1.44.7-1.43.7-2.23-.28-1.41-.85-1.88-1.43-.69-2.59-.69c-1.33,0-2.63.33-3.9.99s-2.25,1.5-2.94,2.53c-.69,1.03-1.04,2.04-1.04,3.04,0,.49.09.92.27,1.28s.5.72.96,1.07c.38.28.57.55.57.82,0,.17-.06.32-.19.43s-.27.18-.45.18c-.46,0-.91-.32-1.34-.95s-.65-1.43-.65-2.4c0-1.77.68-3.39,2.04-4.85,1.78-1.92,4.17-2.88,7.17-2.88,1.14,0,2.08.15,2.81.45s1.28.7,1.64,1.22.54,1.07.54,1.68c0,.77-.25,1.52-.76,2.26s-1.26,1.33-2.25,1.79c-.99.45-2.1.68-3.31.68-.19,0-.48-.01-.88-.04l-.94,3.65c-.16.62-.33,1.22-.53,1.83.61.15,1.14.22,1.59.22.57,0,1.18-.11,1.84-.33l-.14.66c-.61.16-1.12.25-1.54.25s-1-.04-1.78-.13c-.62-.08-1.13-.12-1.52-.12-.76,0-1.53.09-2.33.27l.14-.62c.81-.13,1.37-.32,1.66-.57.42-.35.77-1.06,1.03-2.12l1.77-7.02c.08-.33.12-.56.12-.69,0-.12-.05-.24-.15-.33-.1-.1-.22-.15-.36-.15-.05,0-.13,0-.23.02Z"/>
  <path fill="#FFFFFF" d="m40.08,4.99c.98,0,1.87.23,2.67.69s1.41,1.11,1.85,1.96.66,1.83.66,2.96c0,1.47-.39,2.93-1.18,4.37s-1.75,2.54-2.89,3.27-2.41,1.1-3.8,1.1c-1.6,0-2.9-.5-3.88-1.5s-1.48-2.32-1.48-3.95.39-3.07,1.18-4.53,1.76-2.55,2.91-3.28,2.48-1.09,3.98-1.09Zm-.86.84c-.91,0-1.74.27-2.5.8s-1.38,1.37-1.87,2.51c-.48,1.14-.73,2.46-.73,3.96,0,1.72.38,3.05,1.14,3.98s1.7,1.4,2.84,1.4c.84,0,1.64-.28,2.4-.83.75-.55,1.38-1.43,1.86-2.62s.73-2.56.73-4.11-.37-2.85-1.12-3.75c-.75-.9-1.66-1.34-2.75-1.34Z"/>
  <path fill="#FFFFFF" d="m45.34,19.22l.14-.63c.82-.16,1.37-.34,1.65-.54s.53-.56.75-1.08.53-1.59.91-3.22c.51-2.15.97-3.69,1.38-4.64.63-1.42,1.42-2.48,2.36-3.16s1.89-1.03,2.85-1.03c.62,0,1.14.16,1.56.47s.63.64.63.97c0,.19-.06.35-.19.48s-.28.2-.46.2c-.23,0-.52-.15-.85-.46-.38-.33-.67-.54-.87-.64-.21-.1-.41-.15-.6-.15-.23,0-.45.06-.67.19-.3.17-.63.5-.98.98-.35.48-.71,1.19-1.08,2.14-.24.64-.55,1.7-.93,3.16-.59,2.34-1.03,3.89-1.34,4.65-.22.55-.48,1-.8,1.36,1.12-.24,2.01-.36,2.67-.36.41,0,.8.03,1.15.08s.96.18,1.84.38c.76.18,1.29.27,1.59.27s.55-.09.76-.28.31-.39.31-.63c0-.15-.05-.36-.16-.62-.1-.25-.15-.45-.15-.6,0-.21.06-.38.19-.5.12-.12.29-.18.49-.18.23,0,.43.1.6.31s.25.49.25.85c0,.68-.28,1.27-.84,1.76s-1.32.74-2.29.74c-.48,0-1.09-.04-1.84-.11-2.53-.23-4.19-.34-4.97-.34-1.15,0-2.16.07-3.05.2Z"/>
  <path fill="#FFFFFF" d="m59.5,19.22l.14-.63c.82-.16,1.37-.34,1.65-.54s.53-.56.75-1.08.53-1.59.91-3.22c.51-2.15.97-3.69,1.38-4.64.63-1.42,1.42-2.48,2.36-3.16s1.89-1.03,2.85-1.03c.62,0,1.14.16,1.56.47s.63.64.63.97c0,.19-.06.35-.19.48s-.28.2-.46.2c-.23,0-.52-.15-.85-.46-.38-.33-.67-.54-.87-.64-.21-.1-.41-.15-.6-.15-.23,0-.45.06-.67.19-.3.17-.63.5-.98.98-.35.48-.71,1.19-1.08,2.14-.24.64-.55,1.7-.93,3.16-.59,2.34-1.03,3.89-1.34,4.65-.22.55-.48,1-.8,1.36,1.12-.24,2.01-.36,2.67-.36.41,0,.8.03,1.15.08s.96.18,1.84.38c.76.18,1.29.27,1.59.27s.55-.09.76-.28.31-.39.31-.63c0-.15-.05-.36-.16-.62-.1-.25-.15-.45-.15-.6,0-.21.06-.38.19-.5.12-.12.29-.18.49-.18.23,0,.43.1.6.31s.25.49.25.85c0,.68-.28,1.27-.84,1.76s-1.32.74-2.29.74c-.48,0-1.09-.04-1.84-.11-2.53-.23-4.19-.34-4.97-.34-1.15,0-2.16.07-3.05.2Z"/>
  <path fill="#FFFFFF" d="m83.05,4.99c.98,0,1.87.23,2.67.69s1.41,1.11,1.85,1.96.66,1.83.66,2.96c0,1.47-.39,2.93-1.18,4.37s-1.75,2.54-2.89,3.27-2.41,1.1-3.8,1.1c-1.6,0-2.9-.5-3.88-1.5s-1.48-2.32-1.48-3.95.39-3.07,1.18-4.53,1.76-2.55,2.91-3.28,2.48-1.09,3.98-1.09Zm-.86.84c-.91,0-1.74.27-2.5.8s-1.38,1.37-1.87,2.51c-.48,1.14-.73,2.46-.73,3.96,0,1.72.38,3.05,1.14,3.98s1.7,1.4,2.84,1.4c.84,0,1.64-.28,2.4-.83.75-.55,1.38-1.43,1.86-2.62s.73-2.56.73-4.11-.37-2.85-1.12-3.75c-.75-.9-1.66-1.34-2.75-1.34Z"/>
</svg>